# AST/ASF file generated using VICON BodyLanguage
# -----------------------------------------------
:version 1.10
:name VICON
:units
  mass 1.0
  length 0.45
  angle deg
:documentation
   .ast/.asf automatically generated from VICON data using
   VICON BodyBuilder and BodyLanguage model FoxedUp or BRILLIANT.MOD
:root
   order TX TY TZ RX RY RZ
   axis XYZ
   position 0 0 0  
   orientation 0 0 0 
:bonedata
  begin
     id 1 
     name lhipjoint
     direction 0.690799 -0.707083 0.151096 
     length 2.54797 
     axis 0 0 0  XYZ
  end
  begin
     id 2 
     name lfemur
     direction 0.34202 -0.939693 0  
     length 7.21646  
     axis 0 0 20  XYZ
    dof rx ry rz
    limits (-160.0 20.0)
           (-70.0 70.0)
           (-60.0 70.0)
  end
  begin
     id 3 
     name ltibia
     direction 0.34202 -0.939693 0   
     length 8.16759   
     axis 0 0 20   XYZ
    dof rx
    limits (-10.0 170.0)
  end
  begin
     id 4 
     name lfoot
     direction 0.0487203 -0.133858 0.989802   
     length 1.93375   
     axis -90 7.62852e-016 20   XYZ
    dof rx rz
    limits (-45.0 90.0)
           (-70.0 20.0)
  end
  begin
     id 5 
     name ltoes
     direction 1.53453e-011 -4.21783e-011 1   
     length 0.979747   
     axis -90 7.62852e-016 20   XYZ
    dof rx
    limits (-90.0 20.0)
  end
  begin
     id 6 
     name rhipjoint
     direction -0.694693 -0.703425 0.150315   
     length 2.56122  
     axis 0 0 0  XYZ 
  end
  begin
     id 7 
     name rfemur
     direction -0.34202 -0.939693 0   
     length 7.36786   
     axis 0 0 -20   XYZ
    dof rx ry rz
    limits (-160.0 20.0)
           (-70.0 70.0)
           (-70.0 60.0)
  end
  begin
     id 8 
     name rtibia
     direction -0.34202 -0.939693 0   
     length 8.07288   
     axis 0 0 -20   XYZ
    dof rx
    limits (-10.0 170.0)
 end
 begin
     id 9 
     name rfoot
     direction -0.0428397 -0.117701 0.992125   
     length 1.88295  
     axis -90 -7.62852e-016 -20   XYZ
    dof rx rz
    limits (-45.0 90.0)
           (-20.0 70.0)
  end
  begin
     id 10 
     name rtoes
     direction -1.53456e-011 -4.2187e-011 1   
     length 0.955578   
     axis -90 -7.62852e-016 -20   XYZ
    dof rx
    limits (-90.0 20.0)
  end
  begin
     id 11 
     name lowerback
     direction 0.0288145 0.999398 -0.0193241   
     length 1.92149   
     axis 0 0 0   XYZ
    dof rx ry rz
    limits (-20.0 45.0)
           (-30.0 30.0)
           (-30.0 30.0)
  end
  begin
     id 12 
     name upperback
     direction 0.0233784 0.998099 0.0570278   
     length 1.90435   
     axis 0 0 0   XYZ
    dof rx ry rz
    limits (-20.0 45.0)
           (-30.0 30.0)
           (-30.0 30.0)
  end
  begin
     id 13 
     name thorax
     direction 0.0096694 0.997833 0.0650817   
     length 1.9111   
     axis 0 0 0   XYZ
    dof rx ry rz
    limits (-20.0 45.0)
           (-30.0 30.0)
           (-30.0 30.0)
  end
  begin
     id 14 
     name lowerneck
     direction 0.00516803 0.999916 0.0118722   
     length 1.74664   
     axis 0 0 0   XYZ
    dof rx ry rz
    limits (-20.0 45.0)
           (-30.0 30.0)
           (-30.0 30.0)
  end
  begin
     id 15 
     name upperneck
     direction -0.0510851 0.996117 -0.071696   
     length 1.68498   
     axis 0 0 0   XYZ
    dof rx ry rz
    limits (-20.0 45.0)
           (-30.0 30.0)
           (-30.0 30.0)
  end
  begin
     id 16
     name head
     direction -0.019188 0.999436 -0.0275702  
     length 1.83483  
     axis 0 0 0   XYZ
    dof rx ry rz
    limits (-20.0 45.0)
           (-30.0 30.0)
           (-30.0 30.0)
  end
  begin
     id 17 
     name lclavicle
     direction 0.967006 0.248456 -0.0562957  
     length 3.39395  
     axis 0 0 0   XYZ
    dof ry rz
    limits (-20.0 10.0)
           (0.0 20.0)
  end
  begin
     id 18 
     name lhumerus
     direction 1 -4.48962e-011 -5.62711e-019   
     length 5.24318   
     axis 180 -30 -90   XYZ
    dof rx ry rz
    limits (-60.0 90.0)
           (-90.0 90.0)
           (-90.0 90.0)
  end
  begin
     id 19
     name lradius
     direction 1 -4.48966e-011 7.90625e-027   
     length 2.98999   
     axis 180 -30 -90   XYZ
    dof rx
    limits (-10.0 170.0)
  end
  begin
     id 20
     name lwrist
     direction 1 -4.48959e-011 1.61068e-026   
     length 1.49499   
     axis -9.31229e-015 90 90   XYZ
    dof ry
    limits (-180.0 0.0)
 end
  begin
     id 21 
     name lhand
     direction 1 -4.49017e-011 3.22136e-026   
     length 0.726745   
     axis -2.0555e-014 90 90   XYZ
    dof rx rz
    limits (-90.0 90.0)
           (-45.0 45.0)
  end
  begin
     id 22 
     name lfingers
     direction 1 -4.4898e-011 6.44272e-026   
     length 0.58592   
     axis -4.11101e-014 90 90   XYZ
    dof rx
    limits (0.0 90.0)
  end
  begin
     id 23
     name lthumb
     direction 0.707107 -6.34922e-011 0.707107   
     length 0.841268   
     axis -90 45 2.85299e-015   XYZ
    dof rx rz
    limits (-45.0 45.0)
           (-45.0 45.0)
  end
  begin
     id 24 
     name rclavicle
     direction -0.972232 0.230238 0.0419005   
     length 3.40416  
     axis 0 0 0   XYZ 
    dof ry rz
    limits (-10.0 20.0)
           (-20.0 0.0)
  end
  begin
     id 25 
     name rhumerus
     direction -1 -4.48976e-011 2.48487e-027  
     length 5.37045   
     axis 180 30 90   XYZ
    dof rx ry rz
    limits (-90.0 60.0)
           (-90.0 90.0)
           (-90.0 90.0)
  end
  begin
     id 26 
     name rradius
     direction -1 -4.48942e-011 7.87951e-027   
     length 2.92792   
     axis 180 30 90   XYZ
    dof rx
    limits (-10.0 170.0)
  end
  begin
     id 27 
     name rwrist
     direction -1 -4.48969e-011 1.61068e-026   
     length 1.46396   
     axis -9.31229e-015 -90 -90   XYZ
    dof ry
    limits (-180.0 0.0)
  end
  begin
     id 28
     name rhand
     direction -1 -4.49043e-011 3.22136e-026   
     length 0.784497   
     axis -2.0555e-014 -90 -90   XYZ
    dof rx rz
    limits (-90.0 90.0)
           (-45.0 45.0)
  end
  begin
     id 29
     name rfingers
     direction -1 -4.48823e-011 6.44272e-026   
     length 0.632482   
     axis -4.11101e-014 -90 -90   XYZ
    dof rx
    limits (0.0 90.0)
  end
  begin
     id 30
     name rthumb
     direction -0.707107 -6.34923e-011 0.707107   
     length 0.908121   
     axis -90 -45 -2.85299e-015   XYZ
    dof rx rz
    limits (-45.0 45.0)
           (-45.0 45.0)
  end
:hierarchy
  begin
    root lhipjoint rhipjoint lowerback
    lhipjoint lfemur
    lfemur ltibia
    ltibia lfoot
    lfoot ltoes
    rhipjoint rfemur
    rfemur rtibia
    rtibia rfoot
    rfoot rtoes
    lowerback upperback
    upperback thorax
    thorax lowerneck lclavicle rclavicle
    lowerneck upperneck
    upperneck head
    lclavicle lhumerus
    lhumerus lradius
    lradius lwrist
    lwrist lhand lthumb
    lhand lfingers
    rclavicle rhumerus
    rhumerus rradius
    rradius rwrist
    rwrist rhand rthumb
    rhand rfingers
  end

#!OML:ASF E:\Style6\Style6.ASF
:FULLY-SPECIFIED
:DEGREES
247
root -0.595744 17.81 -0.984166 23.3468 -37.3112 3.00501
lowerback 8.97677 -4.50134 8.65664
upperback 4.83417 -5.32349 4.55824
thorax -0.288064 -2.59572 0.414206
lowerneck 0.997295 12.542 -0.723193
upperneck -3.17938 16.5439 -46.273
head 3.55441 8.59354 -15.4056
rclavicle 1.30403e-013 -5.48646e-014
rhumerus -26.1807 31.3712 -92.9219
rradius 126.696
rwrist -0.194165
rhand -3.40992 -5.50677
rfingers 7.12502
rthumb 22.3205 -34.2375
lclavicle 1.30403e-013 -5.48646e-014
lhumerus -30.0079 -38.6442 105.819
lradius 112.697
lwrist -5.96312
lhand -9.63038 21.9111
lfingers 7.12502
lthumb 16.3396 51.2428
rfemur -50.1943 24.3063 6.49298
rtibia 26.1905
rfoot 0.50949 -6.49142
rtoes -12.1308
lfemur -35.6701 15.4652 -25.1097
ltibia 28.6296
lfoot -10.2866 23.6026
ltoes -7.38084
248
root -0.597519 17.8114 -0.986552 23.3703 -37.2672 2.92152
lowerback 8.99474 -4.52059 8.72835
upperback 4.85479 -5.34276 4.52757
thorax -0.285858 -2.60311 0.346401
lowerneck 1.06601 12.5281 -0.868299
upperneck -3.18072 16.4878 -46.1916
head 3.49455 8.57394 -15.3505
rclavicle 6.52014e-014 4.21423e-014
rhumerus -26.1433 31.2731 -92.9271
rradius 126.627
rwrist -0.183823
rhand -3.45353 -5.60044
rfingers 7.12502
rthumb 22.2786 -34.3362
lclavicle 6.52014e-014 4.21423e-014
lhumerus -30.0983 -38.7563 105.981
lradius 112.603
lwrist -5.89149
lhand -9.84396 21.9841
lfingers 7.12502
lthumb 16.1339 51.3325
rfemur -50.0893 24.2154 6.67844
rtibia 26.132
rfoot 0.519778 -6.35799
rtoes -12.7463
lfemur -35.6227 15.42 -24.9908
ltibia 28.5979
lfoot -10.3613 23.6223
ltoes -6.8848
249
root -0.600315 17.8135 -0.989793 23.4373 -37.2791 2.7771
lowerback 8.97985 -4.51054 8.80909
upperback 4.89959 -5.32994 4.48633
thorax -0.240037 -2.59278 0.25538
lowerneck 1.13297 12.5364 -0.862322
upperneck -3.17398 16.4892 -46.2023
head 3.485 8.58304 -15.3637
rclavicle 1.35174e-014 -1.15295e-013
rhumerus -26.1209 31.1919 -92.9451
rradius 126.595
rwrist -0.197189
rhand -3.3958 -5.65451
rfingers 7.12502
rthumb 22.3341 -34.3837
lclavicle 1.35174e-014 -1.15295e-013
lhumerus -29.953 -38.8983 105.814
lradius 112.518
lwrist -5.68787
lhand -9.89967 22.0358
lfingers 7.12502
lthumb 16.0803 51.3886
rfemur -50.0167 24.1956 6.87231
rtibia 26.0518
rfoot 0.569868 -6.27202
rtoes -12.6945
lfemur -35.592 15.4436 -24.843
ltibia 28.58
lfoot -10.4412 23.6591
ltoes -6.54295
250
root -0.60329 17.8149 -0.993041 23.4947 -37.3213 2.73966
lowerback 8.90957 -4.50356 8.79183
upperback 4.93492 -5.33455 4.43552
thorax -0.168299 -2.59183 0.205137
lowerneck 1.18345 12.7039 -0.532067
upperneck -3.11741 16.8104 -46.5761
head 3.6782 8.74645 -15.5814
rclavicle -6.12257e-014 -2.94201e-014
rhumerus -26.1534 31.1447 -92.9259
rradius 126.59
rwrist -0.240308
rhand -3.35449 -5.61701
rfingers 7.12502
rthumb 22.3737 -34.3414
lclavicle -6.12257e-014 -2.94201e-014
lhumerus -29.8693 -39.0487 105.788
lradius 112.385
lwrist -5.51436
lhand -10.2098 22.2715
lfingers 7.12502
lthumb 15.7816 51.6482
rfemur -50.0031 24.1513 6.94319
rtibia 25.9608
rfoot 0.628393 -6.24344
rtoes -12.3689
lfemur -35.615 15.4482 -24.8116
ltibia 28.5658
lfoot -10.6109 23.6771
ltoes -6.1205
251
root -0.605885 17.8166 -0.996249 23.4918 -37.3409 2.77625
lowerback 8.89215 -4.51604 8.72921
upperback 4.94357 -5.3581 4.37165
thorax -0.152629 -2.6027 0.173525
lowerneck 1.26527 12.5997 -1.18328
upperneck -3.17543 16.5176 -46.0003
head 3.39646 8.6124 -15.2054
rclavicle 1.43125e-014 -4.85035e-014
rhumerus -26.2161 31.1584 -92.9141
rradius 126.598
rwrist -0.326297
rhand -3.42087 -5.62661
rfingers 7.12502
rthumb 22.31 -34.3586
lclavicle 1.43125e-014 -4.85035e-014
lhumerus -30.4812 -39.0486 106.801
lradius 112.086
lwrist -6.19161
lhand -10.5165 22.396
lfingers 7.12502
lthumb 15.4862 51.7957
rfemur -49.9807 24.1055 6.9465
rtibia 25.8851
rfoot 0.679595 -6.2025
rtoes -12.3602
lfemur -35.613 15.4052 -24.8254
ltibia 28.5458
lfoot -10.6259 23.7203
ltoes -6.13537
